/* XPM */
static char* jostlelogo[]={
"32 32 6 1",
"# c #303030 s bottomShadowColor",
"  c #a0a0a0 s background",
"+ c #c3c3c3 s topShadowColor",
"* c #a0a0a0 s ExtraHighlight",
"x c #a0a0a0 s HorizLine",
"z c #a0a0a0 s VertLine",
"                                ",
"                    ****+       ",
"                ****++++#       ",
"            ****++++    #       ",
"        ****++++    xxx #       ",
"    ****++++    xxxx    #       ",
"****++++    xxxx    ####        ",
"++++    xxxx    ####            ",
"+   xxxx      ##                ",
"+ xx    ### z #     ++          ",
"+   ####  + z #  +++ #          ",
"+###      + z #  +   #          ",
"          + z #  + z #          ",
"          + z #  + z #          ",
"          + z #  + z #          ",
"          + z #  + z #          ",
"          + z #  + z #          ",
"          + z #  + z #          ",
"          + z #  + z #          ",
"          + z #  + z #          ",
"+         + z #  + z #         +",
"+++       + z #  + z #       ++#",
"+  ++     + z #  + z #     ++  #",
"+    ++   + z #  + z #   ++    #",
"+ xx   ++ + z #  + z # ++   xx #",
" #  xx   ++ z #  + z #+   xx  # ",
"  ##  xx    z #  + z    xx  ##  ",
"    ##  xx  z #  + z  xx  ##    ",
"      ##  xx  #  +  xx  ##      ",
"        ##  x #  + x  ##        ",
"          ##  #  +  ##          ",
"            ###  +##            "};
