/* XPM */
static const char* vklogo32[]={
"32 32 3 1",
"a c #303030 s bottomShadowColor",
". c #a0a0a0 s background",
"# c #c3c3c3 s topShadowColor",
"................................",
"######...................######.",
"#....a...................#...aa.",
".#....a.................#....a..",
".#....a.................#...a...",
"..#....a...............#....a...",
"..#....a...............#...a....",
"...#....a.............#....a....",
"...#....a.............#...a.....",
"....#....a...........#....a.....",
"....#....a...........#...a......",
".....#....a.........#....a......",
".....#....a.........#...a.......",
"......#....a.......#....a.......",
"......#....a.......#...a........",
".......#....a.....#....a........",
".......#....a.....#...a.........",
"........#....a...#....a.........",
"........#....a...#...a..........",
".........#....a.#....a.###......",
".........#....a.#...a..#.a......",
"..........#....a....a..#.a......",
"..........#....a...a...#.a......",
"...........#.......a...#.a..####",
"...........#......a....#.a.#..a.",
"............#.....a....#.a#..a..",
"............#....a.....#....a...",
".............#...a.....#...a....",
".............#..a......#.a..#...",
"..............#.a......#.aa..#..",
"..............#a.......#.a.a..#.",
"...............a.......aaa..aaaa"};
